<svg width="61" height="161" viewBox="0 0 61 161" fill="none" xmlns="http://www.w3.org/2000/svg">
<path d="M56.3901 2.34216C58.548 8.57598 58.4535 15.2877 58.5693 21.8314C58.9003 40.5318 57.4346 58.71 53.7998 77.0919C47.84 107.232 32.7651 141.081 3.84332 155.542" stroke="#7f7f7f" stroke-width="3" stroke-linecap="round"/>
<path d="M1.99998 156.064C2.28731 154.366 3.01119 152.765 3.29726 151.075" stroke="#7f7f7f" stroke-width="3" stroke-linecap="round"/>
<path d="M8.13535 158.513C6.4135 158.491 4.72011 158.022 3.00579 158" stroke="#7f7f7f" stroke-width="3" stroke-linecap="round"/>
<path d="M2.53649 155.543C2.53649 155.705 2.63683 155.851 2.57705 156.024C2.52315 156.18 2.39463 156.252 2.31626 156.378C2.2563 156.474 2.08298 156.511 2.06707 156.638C2.05427 156.741 1.98665 156.83 1.92218 156.911C1.86205 156.986 1.89002 157.133 1.81787 157.224C1.78361 157.266 1.78361 157.575 1.81787 157.618C1.88265 157.699 2.00981 157.758 2.07866 157.826C2.1287 157.876 2.30923 157.942 2.38001 157.942" stroke="#7f7f7f" stroke-width="3" stroke-linecap="round"/>
<path d="M1.64984 156.899V156.847" stroke="#7f7f7f" stroke-width="3" stroke-linecap="round"/>
<path d="M1.64984 156.847C1.70466 156.84 1.84337 156.571 1.88165 156.511C1.94084 156.418 1.92024 156.248 1.97438 156.181C2.06771 156.064 2.20461 155.851 2.22358 155.7C2.245 155.528 2.56433 155.373 2.58868 155.178C2.6081 155.023 2.77834 154.851 2.84947 154.709" stroke="#7f7f7f" stroke-width="3" stroke-linecap="round"/>
<path d="M2.84947 154.865C2.82669 155.093 2.68611 155.389 2.58868 155.595C2.53519 155.708 2.52916 155.941 2.40323 156.012C2.23911 156.106 1.87081 156.272 1.85847 156.482C1.84592 156.695 1.31639 157.697 1.59768 157.838" stroke="#7f7f7f" stroke-width="3" stroke-linecap="round"/>
</svg>
